<mxfile host="app.diagrams.net" agent="Mozilla/5.0 (Windows NT 10.0; Win64; x64) AppleWebKit/537.36 (KHTML, like Gecko) Chrome/131.0.0.0 Safari/537.36" version="24.9.1">
  <diagram name="Page-1" id="r8ZdAueOLw6-vgRHSNCu">
    <mxGraphModel dx="1318" dy="613" grid="1" gridSize="10" guides="1" tooltips="1" connect="1" arrows="1" fold="1" page="1" pageScale="1" pageWidth="827" pageHeight="1169" math="0" shadow="0">
      <root>
        <mxCell id="0" />
        <mxCell id="1" parent="0" />
        <mxCell id="FS3H9KKDJFf5cDsocmn--1" value="" style="endArrow=none;dashed=1;html=1;dashPattern=1 3;strokeWidth=2;rounded=0;" edge="1" parent="1">
          <mxGeometry width="50" height="50" relative="1" as="geometry">
            <mxPoint x="160" y="1070" as="sourcePoint" />
            <mxPoint x="160" y="120" as="targetPoint" />
          </mxGeometry>
        </mxCell>
        <mxCell id="FS3H9KKDJFf5cDsocmn--2" value="" style="endArrow=none;dashed=1;html=1;dashPattern=1 3;strokeWidth=2;rounded=0;" edge="1" parent="1">
          <mxGeometry width="50" height="50" relative="1" as="geometry">
            <mxPoint x="320" y="1080" as="sourcePoint" />
            <mxPoint x="320" y="120" as="targetPoint" />
          </mxGeometry>
        </mxCell>
        <mxCell id="FS3H9KKDJFf5cDsocmn--3" value="" style="endArrow=none;dashed=1;html=1;dashPattern=1 3;strokeWidth=2;rounded=0;" edge="1" parent="1">
          <mxGeometry width="50" height="50" relative="1" as="geometry">
            <mxPoint x="480" y="1080" as="sourcePoint" />
            <mxPoint x="480" y="120" as="targetPoint" />
          </mxGeometry>
        </mxCell>
        <mxCell id="FS3H9KKDJFf5cDsocmn--4" value="" style="endArrow=none;dashed=1;html=1;dashPattern=1 3;strokeWidth=2;rounded=0;" edge="1" parent="1">
          <mxGeometry width="50" height="50" relative="1" as="geometry">
            <mxPoint x="640" y="1080" as="sourcePoint" />
            <mxPoint x="640" y="120" as="targetPoint" />
          </mxGeometry>
        </mxCell>
        <mxCell id="FS3H9KKDJFf5cDsocmn--5" value="Клиент" style="text;html=1;align=center;verticalAlign=middle;resizable=0;points=[];autosize=1;strokeColor=none;fillColor=none;" vertex="1" parent="1">
          <mxGeometry x="130" y="90" width="60" height="30" as="geometry" />
        </mxCell>
        <mxCell id="FS3H9KKDJFf5cDsocmn--6" value="Менеджер" style="text;whiteSpace=wrap;html=1;" vertex="1" parent="1">
          <mxGeometry x="290" y="90" width="90" height="40" as="geometry" />
        </mxCell>
        <mxCell id="FS3H9KKDJFf5cDsocmn--7" value="Водитель " style="text;html=1;align=center;verticalAlign=middle;resizable=0;points=[];autosize=1;strokeColor=none;fillColor=none;" vertex="1" parent="1">
          <mxGeometry x="440" y="90" width="80" height="30" as="geometry" />
        </mxCell>
        <mxCell id="FS3H9KKDJFf5cDsocmn--8" value="Фермер" style="text;whiteSpace=wrap;html=1;" vertex="1" parent="1">
          <mxGeometry x="620" y="90" width="80" height="40" as="geometry" />
        </mxCell>
        <mxCell id="FS3H9KKDJFf5cDsocmn--9" value="&lt;div&gt;Размещение&lt;/div&gt;&lt;div&gt;заказа&lt;/div&gt;" style="text;html=1;align=center;verticalAlign=middle;resizable=0;points=[];autosize=1;strokeColor=none;fillColor=none;" vertex="1" parent="1">
          <mxGeometry x="190" y="173" width="90" height="40" as="geometry" />
        </mxCell>
        <mxCell id="FS3H9KKDJFf5cDsocmn--11" value="Создание заказа" style="text;html=1;align=center;verticalAlign=middle;resizable=0;points=[];autosize=1;strokeColor=none;fillColor=none;" vertex="1" parent="1">
          <mxGeometry x="340" y="255" width="120" height="30" as="geometry" />
        </mxCell>
        <mxCell id="FS3H9KKDJFf5cDsocmn--12" value="" style="endArrow=classic;html=1;rounded=0;" edge="1" parent="1">
          <mxGeometry width="50" height="50" relative="1" as="geometry">
            <mxPoint x="320" y="290" as="sourcePoint" />
            <mxPoint x="480" y="290" as="targetPoint" />
          </mxGeometry>
        </mxCell>
        <mxCell id="FS3H9KKDJFf5cDsocmn--13" value="Уведомление о заказе" style="text;html=1;align=center;verticalAlign=middle;resizable=0;points=[];autosize=1;strokeColor=none;fillColor=none;" vertex="1" parent="1">
          <mxGeometry x="330" y="330" width="150" height="30" as="geometry" />
        </mxCell>
        <mxCell id="FS3H9KKDJFf5cDsocmn--14" value="Уведомление о заказе" style="text;html=1;align=center;verticalAlign=middle;resizable=0;points=[];autosize=1;strokeColor=none;fillColor=none;" vertex="1" parent="1">
          <mxGeometry x="490" y="410" width="150" height="30" as="geometry" />
        </mxCell>
        <mxCell id="FS3H9KKDJFf5cDsocmn--15" value="Подтверждение заказе" style="text;html=1;align=center;verticalAlign=middle;resizable=0;points=[];autosize=1;strokeColor=none;fillColor=none;" vertex="1" parent="1">
          <mxGeometry x="490" y="470" width="150" height="30" as="geometry" />
        </mxCell>
        <mxCell id="FS3H9KKDJFf5cDsocmn--16" value="Подтверждение фермером" style="text;html=1;align=center;verticalAlign=middle;resizable=0;points=[];autosize=1;strokeColor=none;fillColor=none;" vertex="1" parent="1">
          <mxGeometry x="310" y="530" width="180" height="30" as="geometry" />
        </mxCell>
        <mxCell id="FS3H9KKDJFf5cDsocmn--17" value="&lt;div&gt;Уведомление клиента&lt;/div&gt;&lt;div&gt;o подтверждении&lt;/div&gt;&lt;div&gt;заказа&lt;/div&gt;" style="text;html=1;align=center;verticalAlign=middle;resizable=0;points=[];autosize=1;strokeColor=none;fillColor=none;" vertex="1" parent="1">
          <mxGeometry x="170" y="585" width="150" height="60" as="geometry" />
        </mxCell>
        <mxCell id="FS3H9KKDJFf5cDsocmn--18" value="&lt;div&gt;Накладная водителю&lt;/div&gt;&lt;div&gt;&lt;br&gt;&lt;/div&gt;" style="text;html=1;align=center;verticalAlign=middle;resizable=0;points=[];autosize=1;strokeColor=none;fillColor=none;" vertex="1" parent="1">
          <mxGeometry x="330" y="660" width="140" height="40" as="geometry" />
        </mxCell>
        <mxCell id="FS3H9KKDJFf5cDsocmn--19" value="&lt;div&gt;Уведомление o&lt;/div&gt;&lt;div&gt;готовности заказа&lt;/div&gt;" style="text;html=1;align=center;verticalAlign=middle;resizable=0;points=[];autosize=1;strokeColor=none;fillColor=none;" vertex="1" parent="1">
          <mxGeometry x="340" y="720" width="120" height="40" as="geometry" />
        </mxCell>
        <mxCell id="FS3H9KKDJFf5cDsocmn--20" value="&lt;div&gt;Подтверждение готовности&lt;/div&gt;&lt;div&gt;Доставка&lt;/div&gt;&lt;div&gt;&lt;br&gt;&lt;/div&gt;" style="text;html=1;align=center;verticalAlign=middle;resizable=0;points=[];autosize=1;strokeColor=none;fillColor=none;" vertex="1" parent="1">
          <mxGeometry x="470" y="790" width="180" height="60" as="geometry" />
        </mxCell>
        <mxCell id="FS3H9KKDJFf5cDsocmn--21" value="&lt;div&gt;Уведомление o&lt;/div&gt;&lt;div&gt;доставке&lt;/div&gt;" style="text;html=1;align=center;verticalAlign=middle;resizable=0;points=[];autosize=1;strokeColor=none;fillColor=none;" vertex="1" parent="1">
          <mxGeometry x="505" y="850" width="110" height="40" as="geometry" />
        </mxCell>
        <mxCell id="FS3H9KKDJFf5cDsocmn--22" value="&lt;div&gt;Подтверждение доставки&lt;/div&gt;&lt;div&gt;&lt;br&gt;&lt;/div&gt;" style="text;html=1;align=center;verticalAlign=middle;resizable=0;points=[];autosize=1;strokeColor=none;fillColor=none;" vertex="1" parent="1">
          <mxGeometry x="150" y="923" width="170" height="40" as="geometry" />
        </mxCell>
        <mxCell id="FS3H9KKDJFf5cDsocmn--23" value="&lt;div&gt;Уведомление фермеру о&lt;/div&gt;&lt;div&gt;статусе заказа&lt;/div&gt;&lt;div&gt;&lt;br&gt;&lt;/div&gt;" style="text;html=1;align=center;verticalAlign=middle;resizable=0;points=[];autosize=1;strokeColor=none;fillColor=none;" vertex="1" parent="1">
          <mxGeometry x="320" y="978" width="160" height="60" as="geometry" />
        </mxCell>
        <mxCell id="FS3H9KKDJFf5cDsocmn--25" value="Обновление статуса&#xa;заказа на &quot;доставлено&quot;" style="text;whiteSpace=wrap;" vertex="1" parent="1">
          <mxGeometry x="180" y="1038" width="160" height="50" as="geometry" />
        </mxCell>
        <mxCell id="FS3H9KKDJFf5cDsocmn--26" value="" style="endArrow=none;dashed=1;html=1;dashPattern=1 3;strokeWidth=2;rounded=0;" edge="1" parent="1">
          <mxGeometry width="50" height="50" relative="1" as="geometry">
            <mxPoint x="160" y="210" as="sourcePoint" />
            <mxPoint x="320" y="210" as="targetPoint" />
          </mxGeometry>
        </mxCell>
        <mxCell id="FS3H9KKDJFf5cDsocmn--28" value="" style="endArrow=classic;html=1;rounded=0;" edge="1" parent="1">
          <mxGeometry width="50" height="50" relative="1" as="geometry">
            <mxPoint x="480" y="440" as="sourcePoint" />
            <mxPoint x="640" y="440" as="targetPoint" />
          </mxGeometry>
        </mxCell>
        <mxCell id="FS3H9KKDJFf5cDsocmn--29" value="" style="endArrow=classic;html=1;rounded=0;exitX=1.005;exitY=0.998;exitDx=0;exitDy=0;exitPerimeter=0;" edge="1" parent="1" source="FS3H9KKDJFf5cDsocmn--13">
          <mxGeometry width="50" height="50" relative="1" as="geometry">
            <mxPoint x="505" y="344.40999999999997" as="sourcePoint" />
            <mxPoint x="320" y="360" as="targetPoint" />
          </mxGeometry>
        </mxCell>
        <mxCell id="FS3H9KKDJFf5cDsocmn--30" value="" style="endArrow=classic;html=1;rounded=0;exitX=1.005;exitY=0.998;exitDx=0;exitDy=0;exitPerimeter=0;" edge="1" parent="1">
          <mxGeometry width="50" height="50" relative="1" as="geometry">
            <mxPoint x="641" y="500" as="sourcePoint" />
            <mxPoint x="480" y="500" as="targetPoint" />
          </mxGeometry>
        </mxCell>
        <mxCell id="FS3H9KKDJFf5cDsocmn--31" value="" style="endArrow=classic;html=1;rounded=0;exitX=1.005;exitY=0.998;exitDx=0;exitDy=0;exitPerimeter=0;" edge="1" parent="1">
          <mxGeometry width="50" height="50" relative="1" as="geometry">
            <mxPoint x="480" y="560" as="sourcePoint" />
            <mxPoint x="319" y="560" as="targetPoint" />
          </mxGeometry>
        </mxCell>
        <mxCell id="FS3H9KKDJFf5cDsocmn--32" value="" style="endArrow=classic;html=1;rounded=0;exitX=1.005;exitY=0.998;exitDx=0;exitDy=0;exitPerimeter=0;" edge="1" parent="1">
          <mxGeometry width="50" height="50" relative="1" as="geometry">
            <mxPoint x="320" y="645" as="sourcePoint" />
            <mxPoint x="159" y="645" as="targetPoint" />
          </mxGeometry>
        </mxCell>
        <mxCell id="FS3H9KKDJFf5cDsocmn--33" value="" style="endArrow=classic;html=1;rounded=0;" edge="1" parent="1">
          <mxGeometry width="50" height="50" relative="1" as="geometry">
            <mxPoint x="320" y="690" as="sourcePoint" />
            <mxPoint x="480" y="690" as="targetPoint" />
          </mxGeometry>
        </mxCell>
        <mxCell id="FS3H9KKDJFf5cDsocmn--34" value="" style="endArrow=classic;html=1;rounded=0;" edge="1" parent="1">
          <mxGeometry width="50" height="50" relative="1" as="geometry">
            <mxPoint x="320" y="770" as="sourcePoint" />
            <mxPoint x="480" y="770" as="targetPoint" />
          </mxGeometry>
        </mxCell>
        <mxCell id="FS3H9KKDJFf5cDsocmn--35" value="" style="endArrow=classic;html=1;rounded=0;" edge="1" parent="1">
          <mxGeometry width="50" height="50" relative="1" as="geometry">
            <mxPoint x="480" y="830" as="sourcePoint" />
            <mxPoint x="640" y="830" as="targetPoint" />
          </mxGeometry>
        </mxCell>
        <mxCell id="FS3H9KKDJFf5cDsocmn--36" value="" style="endArrow=classic;html=1;rounded=0;exitX=0.021;exitY=0.166;exitDx=0;exitDy=0;exitPerimeter=0;" edge="1" parent="1" source="FS3H9KKDJFf5cDsocmn--20">
          <mxGeometry width="50" height="50" relative="1" as="geometry">
            <mxPoint x="350" y="720" as="sourcePoint" />
            <mxPoint x="320" y="800" as="targetPoint" />
          </mxGeometry>
        </mxCell>
        <mxCell id="FS3H9KKDJFf5cDsocmn--37" value="" style="endArrow=classic;html=1;rounded=0;exitX=0.021;exitY=0.166;exitDx=0;exitDy=0;exitPerimeter=0;" edge="1" parent="1">
          <mxGeometry width="50" height="50" relative="1" as="geometry">
            <mxPoint x="634" y="890" as="sourcePoint" />
            <mxPoint x="480" y="890" as="targetPoint" />
          </mxGeometry>
        </mxCell>
        <mxCell id="FS3H9KKDJFf5cDsocmn--38" value="" style="endArrow=classic;html=1;rounded=0;exitX=0.021;exitY=0.166;exitDx=0;exitDy=0;exitPerimeter=0;" edge="1" parent="1">
          <mxGeometry width="50" height="50" relative="1" as="geometry">
            <mxPoint x="320" y="949.9999999999999" as="sourcePoint" />
            <mxPoint x="166" y="949.9999999999999" as="targetPoint" />
          </mxGeometry>
        </mxCell>
        <mxCell id="FS3H9KKDJFf5cDsocmn--39" value="" style="endArrow=classic;html=1;rounded=0;exitX=0.021;exitY=0.166;exitDx=0;exitDy=0;exitPerimeter=0;" edge="1" parent="1">
          <mxGeometry width="50" height="50" relative="1" as="geometry">
            <mxPoint x="320" y="1080" as="sourcePoint" />
            <mxPoint x="166" y="1080" as="targetPoint" />
          </mxGeometry>
        </mxCell>
        <mxCell id="FS3H9KKDJFf5cDsocmn--40" value="" style="endArrow=classic;html=1;rounded=0;" edge="1" parent="1">
          <mxGeometry width="50" height="50" relative="1" as="geometry">
            <mxPoint x="320" y="1020" as="sourcePoint" />
            <mxPoint x="480" y="1020" as="targetPoint" />
          </mxGeometry>
        </mxCell>
      </root>
    </mxGraphModel>
  </diagram>
</mxfile>
